<mxfile host="Electron" agent="Mozilla/5.0 (Windows NT 10.0; Win64; x64) AppleWebKit/537.36 (KHTML, like Gecko) draw.io/27.0.5 Chrome/134.0.6998.205 Electron/35.3.0 Safari/537.36" version="27.0.5">
  <diagram name="Сторінка-1" id="dXqGvTxdCW-8T9gbFmyt">
    <mxGraphModel dx="853" dy="1087" grid="0" gridSize="10" guides="1" tooltips="1" connect="1" arrows="1" fold="1" page="1" pageScale="1" pageWidth="827" pageHeight="1169" math="0" shadow="0">
      <root>
        <mxCell id="0" />
        <mxCell id="1" parent="0" />
        <mxCell id="k5kieuk6yRtRj52ddqgF-3" style="edgeStyle=orthogonalEdgeStyle;rounded=0;orthogonalLoop=1;jettySize=auto;html=1;exitX=0.5;exitY=1;exitDx=0;exitDy=0;" edge="1" parent="1" source="k5kieuk6yRtRj52ddqgF-1" target="k5kieuk6yRtRj52ddqgF-2">
          <mxGeometry relative="1" as="geometry" />
        </mxCell>
        <mxCell id="k5kieuk6yRtRj52ddqgF-1" value="ПОЧАТОК" style="rounded=1;whiteSpace=wrap;html=1;arcSize=50;" vertex="1" parent="1">
          <mxGeometry x="354" y="5" width="120" height="60" as="geometry" />
        </mxCell>
        <mxCell id="k5kieuk6yRtRj52ddqgF-5" style="edgeStyle=orthogonalEdgeStyle;rounded=0;orthogonalLoop=1;jettySize=auto;html=1;exitX=0.5;exitY=1;exitDx=0;exitDy=0;" edge="1" parent="1" source="k5kieuk6yRtRj52ddqgF-2" target="k5kieuk6yRtRj52ddqgF-4">
          <mxGeometry relative="1" as="geometry" />
        </mxCell>
        <mxCell id="k5kieuk6yRtRj52ddqgF-2" value="Передаємо значення кількісті гравців" style="rounded=0;whiteSpace=wrap;html=1;" vertex="1" parent="1">
          <mxGeometry x="354" y="96" width="120" height="60" as="geometry" />
        </mxCell>
        <mxCell id="k5kieuk6yRtRj52ddqgF-8" style="edgeStyle=orthogonalEdgeStyle;rounded=0;orthogonalLoop=1;jettySize=auto;html=1;exitX=0.5;exitY=1;exitDx=0;exitDy=0;entryX=0.5;entryY=0;entryDx=0;entryDy=0;" edge="1" parent="1" source="k5kieuk6yRtRj52ddqgF-4" target="k5kieuk6yRtRj52ddqgF-6">
          <mxGeometry relative="1" as="geometry" />
        </mxCell>
        <mxCell id="k5kieuk6yRtRj52ddqgF-32" style="edgeStyle=orthogonalEdgeStyle;rounded=0;orthogonalLoop=1;jettySize=auto;html=1;exitX=1;exitY=0.5;exitDx=0;exitDy=0;" edge="1" parent="1" source="k5kieuk6yRtRj52ddqgF-4" target="k5kieuk6yRtRj52ddqgF-26">
          <mxGeometry relative="1" as="geometry">
            <Array as="points">
              <mxPoint x="692" y="198" />
              <mxPoint x="692" y="698" />
              <mxPoint x="352" y="698" />
            </Array>
          </mxGeometry>
        </mxCell>
        <mxCell id="k5kieuk6yRtRj52ddqgF-4" value="Турнір з трьох ігрових сесій" style="shape=hexagon;perimeter=hexagonPerimeter2;whiteSpace=wrap;html=1;fixedSize=1;" vertex="1" parent="1">
          <mxGeometry x="354" y="179" width="120" height="38" as="geometry" />
        </mxCell>
        <mxCell id="k5kieuk6yRtRj52ddqgF-9" style="edgeStyle=orthogonalEdgeStyle;rounded=0;orthogonalLoop=1;jettySize=auto;html=1;exitX=0.5;exitY=1;exitDx=0;exitDy=0;entryX=0.5;entryY=0;entryDx=0;entryDy=0;" edge="1" parent="1" source="k5kieuk6yRtRj52ddqgF-6" target="k5kieuk6yRtRj52ddqgF-7">
          <mxGeometry relative="1" as="geometry" />
        </mxCell>
        <mxCell id="k5kieuk6yRtRj52ddqgF-6" value="Запуск ігрової сесії&amp;nbsp;" style="rounded=0;whiteSpace=wrap;html=1;" vertex="1" parent="1">
          <mxGeometry x="354" y="231" width="120" height="42" as="geometry" />
        </mxCell>
        <mxCell id="k5kieuk6yRtRj52ddqgF-11" style="edgeStyle=orthogonalEdgeStyle;rounded=0;orthogonalLoop=1;jettySize=auto;html=1;exitX=0.5;exitY=1;exitDx=0;exitDy=0;entryX=0.5;entryY=0;entryDx=0;entryDy=0;" edge="1" parent="1" source="k5kieuk6yRtRj52ddqgF-7" target="k5kieuk6yRtRj52ddqgF-10">
          <mxGeometry relative="1" as="geometry" />
        </mxCell>
        <mxCell id="k5kieuk6yRtRj52ddqgF-7" value="Отримуємо результати ігрової сесії" style="rounded=0;whiteSpace=wrap;html=1;" vertex="1" parent="1">
          <mxGeometry x="354" y="287" width="120" height="60" as="geometry" />
        </mxCell>
        <mxCell id="k5kieuk6yRtRj52ddqgF-13" style="edgeStyle=orthogonalEdgeStyle;rounded=0;orthogonalLoop=1;jettySize=auto;html=1;exitX=0.5;exitY=1;exitDx=0;exitDy=0;entryX=0.5;entryY=0;entryDx=0;entryDy=0;" edge="1" parent="1" source="k5kieuk6yRtRj52ddqgF-10" target="k5kieuk6yRtRj52ddqgF-12">
          <mxGeometry relative="1" as="geometry" />
        </mxCell>
        <mxCell id="k5kieuk6yRtRj52ddqgF-16" style="edgeStyle=orthogonalEdgeStyle;rounded=0;orthogonalLoop=1;jettySize=auto;html=1;exitX=1;exitY=0.5;exitDx=0;exitDy=0;" edge="1" parent="1" source="k5kieuk6yRtRj52ddqgF-10" target="k5kieuk6yRtRj52ddqgF-15">
          <mxGeometry relative="1" as="geometry">
            <Array as="points">
              <mxPoint x="538" y="392" />
              <mxPoint x="538" y="520" />
              <mxPoint x="414" y="520" />
            </Array>
          </mxGeometry>
        </mxCell>
        <mxCell id="k5kieuk6yRtRj52ddqgF-10" value="Записуємо результати&amp;nbsp;" style="shape=hexagon;perimeter=hexagonPerimeter2;whiteSpace=wrap;html=1;fixedSize=1;" vertex="1" parent="1">
          <mxGeometry x="354" y="366" width="120" height="51" as="geometry" />
        </mxCell>
        <mxCell id="k5kieuk6yRtRj52ddqgF-14" style="edgeStyle=orthogonalEdgeStyle;rounded=0;orthogonalLoop=1;jettySize=auto;html=1;exitX=0.5;exitY=1;exitDx=0;exitDy=0;entryX=0;entryY=0.5;entryDx=0;entryDy=0;" edge="1" parent="1" source="k5kieuk6yRtRj52ddqgF-12" target="k5kieuk6yRtRj52ddqgF-10">
          <mxGeometry relative="1" as="geometry" />
        </mxCell>
        <mxCell id="k5kieuk6yRtRj52ddqgF-12" value="Запис результатів відповідно кожного гравця" style="rounded=0;whiteSpace=wrap;html=1;" vertex="1" parent="1">
          <mxGeometry x="354" y="433" width="120" height="60" as="geometry" />
        </mxCell>
        <mxCell id="k5kieuk6yRtRj52ddqgF-24" style="edgeStyle=orthogonalEdgeStyle;rounded=0;orthogonalLoop=1;jettySize=auto;html=1;exitX=0;exitY=0.5;exitDx=0;exitDy=0;entryX=0;entryY=0.5;entryDx=0;entryDy=0;" edge="1" parent="1" source="k5kieuk6yRtRj52ddqgF-15" target="k5kieuk6yRtRj52ddqgF-4">
          <mxGeometry relative="1" as="geometry">
            <Array as="points">
              <mxPoint x="259" y="608" />
              <mxPoint x="259" y="198" />
            </Array>
          </mxGeometry>
        </mxCell>
        <mxCell id="k5kieuk6yRtRj52ddqgF-25" style="edgeStyle=orthogonalEdgeStyle;rounded=0;orthogonalLoop=1;jettySize=auto;html=1;exitX=1;exitY=0.5;exitDx=0;exitDy=0;entryX=0;entryY=0.5;entryDx=0;entryDy=0;" edge="1" parent="1" source="k5kieuk6yRtRj52ddqgF-15" target="k5kieuk6yRtRj52ddqgF-17">
          <mxGeometry relative="1" as="geometry" />
        </mxCell>
        <mxCell id="k5kieuk6yRtRj52ddqgF-15" value="Якщо турнір закінчується завчасно" style="rhombus;whiteSpace=wrap;html=1;" vertex="1" parent="1">
          <mxGeometry x="354" y="539" width="119" height="137" as="geometry" />
        </mxCell>
        <mxCell id="k5kieuk6yRtRj52ddqgF-31" style="edgeStyle=orthogonalEdgeStyle;rounded=0;orthogonalLoop=1;jettySize=auto;html=1;exitX=0.5;exitY=1;exitDx=0;exitDy=0;entryX=0.5;entryY=0;entryDx=0;entryDy=0;" edge="1" parent="1" source="k5kieuk6yRtRj52ddqgF-17" target="k5kieuk6yRtRj52ddqgF-26">
          <mxGeometry relative="1" as="geometry">
            <Array as="points">
              <mxPoint x="578" y="698" />
              <mxPoint x="352" y="698" />
            </Array>
          </mxGeometry>
        </mxCell>
        <mxCell id="k5kieuk6yRtRj52ddqgF-17" value="Переривання турніру, відкриття вікна з теперішніми результатами&amp;nbsp;" style="rounded=0;whiteSpace=wrap;html=1;" vertex="1" parent="1">
          <mxGeometry x="518" y="577.5" width="120" height="60" as="geometry" />
        </mxCell>
        <mxCell id="k5kieuk6yRtRj52ddqgF-33" style="edgeStyle=orthogonalEdgeStyle;rounded=0;orthogonalLoop=1;jettySize=auto;html=1;exitX=0;exitY=0.5;exitDx=0;exitDy=0;" edge="1" parent="1" source="k5kieuk6yRtRj52ddqgF-26" target="k5kieuk6yRtRj52ddqgF-35">
          <mxGeometry relative="1" as="geometry">
            <mxPoint x="193.66666666666674" y="882.3332926432292" as="targetPoint" />
          </mxGeometry>
        </mxCell>
        <mxCell id="k5kieuk6yRtRj52ddqgF-38" style="edgeStyle=orthogonalEdgeStyle;rounded=0;orthogonalLoop=1;jettySize=auto;html=1;exitX=1;exitY=0.5;exitDx=0;exitDy=0;entryX=0.5;entryY=0;entryDx=0;entryDy=0;" edge="1" parent="1" source="k5kieuk6yRtRj52ddqgF-26" target="k5kieuk6yRtRj52ddqgF-37">
          <mxGeometry relative="1" as="geometry">
            <Array as="points">
              <mxPoint x="619" y="773" />
              <mxPoint x="619" y="961" />
              <mxPoint x="414" y="961" />
              <mxPoint x="414" y="1006" />
            </Array>
          </mxGeometry>
        </mxCell>
        <mxCell id="k5kieuk6yRtRj52ddqgF-26" value="Перевіряємо чи турнір не переривався" style="rhombus;whiteSpace=wrap;html=1;" vertex="1" parent="1">
          <mxGeometry x="250" y="715" width="204" height="116" as="geometry" />
        </mxCell>
        <mxCell id="k5kieuk6yRtRj52ddqgF-29" value="Так" style="text;html=1;align=center;verticalAlign=middle;resizable=0;points=[];autosize=1;strokeColor=none;fillColor=none;" vertex="1" parent="1">
          <mxGeometry x="459" y="573" width="37" height="26" as="geometry" />
        </mxCell>
        <mxCell id="k5kieuk6yRtRj52ddqgF-30" value="Ні" style="text;html=1;align=center;verticalAlign=middle;resizable=0;points=[];autosize=1;strokeColor=none;fillColor=none;" vertex="1" parent="1">
          <mxGeometry x="329" y="568" width="29" height="26" as="geometry" />
        </mxCell>
        <mxCell id="k5kieuk6yRtRj52ddqgF-41" style="edgeStyle=orthogonalEdgeStyle;rounded=0;orthogonalLoop=1;jettySize=auto;html=1;exitX=0.5;exitY=1;exitDx=0;exitDy=0;entryX=0.5;entryY=0;entryDx=0;entryDy=0;" edge="1" parent="1" source="k5kieuk6yRtRj52ddqgF-35" target="k5kieuk6yRtRj52ddqgF-37">
          <mxGeometry relative="1" as="geometry" />
        </mxCell>
        <mxCell id="k5kieuk6yRtRj52ddqgF-35" value="Здійснуємо запис, що турнір закінчився завчасно і зберігаємо результати за весь турнір" style="rounded=0;whiteSpace=wrap;html=1;" vertex="1" parent="1">
          <mxGeometry x="133" y="831" width="127.33" height="83.67" as="geometry" />
        </mxCell>
        <mxCell id="k5kieuk6yRtRj52ddqgF-36" value="Так" style="text;html=1;align=center;verticalAlign=middle;resizable=0;points=[];autosize=1;strokeColor=none;fillColor=none;" vertex="1" parent="1">
          <mxGeometry x="219" y="744" width="37" height="26" as="geometry" />
        </mxCell>
        <mxCell id="k5kieuk6yRtRj52ddqgF-37" value="КІНЕЦЬ" style="rounded=1;whiteSpace=wrap;html=1;arcSize=50;" vertex="1" parent="1">
          <mxGeometry x="353" y="1006" width="120" height="60" as="geometry" />
        </mxCell>
        <mxCell id="k5kieuk6yRtRj52ddqgF-40" value="Ні" style="text;html=1;align=center;verticalAlign=middle;resizable=0;points=[];autosize=1;strokeColor=none;fillColor=none;" vertex="1" parent="1">
          <mxGeometry x="452" y="747" width="29" height="26" as="geometry" />
        </mxCell>
      </root>
    </mxGraphModel>
  </diagram>
</mxfile>
